<svg xmlns="http://www.w3.org/2000/svg" viewBox="0 0 2048 2048" role="img" aria-labelledby="title desc">
  <title id="title">晚风乌龙正视罐身</title>
  <desc id="desc">晚声晚风乌龙 250ml 气泡饮正视产品图</desc>
  <defs>
    <radialGradient id="bg" cx="50%" cy="43%" r="66%">
      <stop offset="0" stop-color="#ffffff"/>
      <stop offset="0.72" stop-color="#f5f3ee"/>
      <stop offset="1" stop-color="#ded9ce"/>
    </radialGradient>
    <linearGradient id="can" x1="0" x2="1">
      <stop offset="0" stop-color="#6f7246"/>
      <stop offset="0.2" stop-color="#c9b06a"/>
      <stop offset="0.5" stop-color="#8d8650"/>
      <stop offset="0.78" stop-color="#dfc981"/>
      <stop offset="1" stop-color="#646a40"/>
    </linearGradient>
    <linearGradient id="shine" x1="0" x2="1">
      <stop offset="0" stop-color="#fff" stop-opacity="0"/>
      <stop offset="0.45" stop-color="#fff" stop-opacity="0.42"/>
      <stop offset="1" stop-color="#fff" stop-opacity="0"/>
    </linearGradient>
    <linearGradient id="metal" x1="0" x2="1">
      <stop offset="0" stop-color="#777b80"/>
      <stop offset="0.5" stop-color="#f2f2ee"/>
      <stop offset="1" stop-color="#73777d"/>
    </linearGradient>
    <filter id="shadow" x="-40%" y="-30%" width="180%" height="180%">
      <feDropShadow dx="0" dy="44" stdDeviation="42" flood-color="#181313" flood-opacity="0.2"/>
    </filter>
    <filter id="soft" x="-20%" y="-20%" width="140%" height="140%">
      <feGaussianBlur stdDeviation="2"/>
    </filter>
  </defs>
  <rect width="2048" height="2048" fill="url(#bg)"/>
  <ellipse cx="1024" cy="1692" rx="405" ry="84" fill="#181313" opacity="0.16" filter="url(#soft)"/>
  <g filter="url(#shadow)">
    <path d="M712 416C712 348 766 300 1024 300s312 48 312 116v1216c0 80-70 124-312 124s-312-44-312-124V416Z" fill="url(#can)"/>
    <ellipse cx="1024" cy="416" rx="312" ry="96" fill="url(#metal)"/>
    <ellipse cx="1024" cy="414" rx="242" ry="54" fill="#dcddd9"/>
    <ellipse cx="1024" cy="410" rx="150" ry="26" fill="#8b8d8a" opacity="0.4"/>
    <path d="M942 374c28-22 130-20 156 0 18 14 2 49-78 50-76 0-94-35-78-50Z" fill="#6f746d"/>
    <rect x="955" y="356" width="96" height="28" rx="12" fill="#d8d9d4"/>
    <path d="M724 446h118c-54 306-54 818 0 1128H724V446Z" fill="url(#shine)" opacity="0.55"/>
    <path d="M1182 468h82c-42 326-38 801 8 1132h-86c-36-328-38-817-4-1132Z" fill="#fff" opacity="0.14"/>
    <g fill="none" stroke="#fff7cf" stroke-linecap="round" opacity="0.68">
      <path d="M786 966c98-78 190-118 276-119 84-1 152 35 206 108" stroke-width="9"/>
      <path d="M784 1031c104-73 204-103 298-88 78 13 141 52 190 118" stroke-width="7"/>
      <path d="M800 1096c88-51 175-70 262-56 72 12 130 44 174 95" stroke-width="6"/>
    </g>
    <g opacity="0.62">
      <path d="M1246 866c62-44 113-48 153-13-20 58-61 87-122 86-31 0-55-8-73-23 14-13 29-23 46-30Z" fill="#455b36"/>
      <path d="M815 1170c66-38 118-34 156 13-29 54-75 77-137 69-27-4-48-14-64-30 16-12 31-22 45-32Z" fill="#52673f"/>
    </g>
    <g font-family="'Microsoft YaHei', 'Noto Sans CJK SC', Arial, sans-serif" text-anchor="middle">
      <text x="1024" y="680" fill="#2d2c22" font-size="118" font-weight="500" letter-spacing="10">晚声</text>
      <text x="1024" y="748" fill="#3d3d31" font-size="44" font-weight="600" letter-spacing="9">WANSHENG</text>
      <text x="1024" y="1196" fill="#2c2b22" font-size="78" font-weight="600" letter-spacing="8">晚风乌龙</text>
      <text x="1024" y="1260" fill="#4b4939" font-size="30" font-weight="500" letter-spacing="3">Evening Breeze Oolong</text>
      <text x="1024" y="1524" fill="#3d3b2e" font-size="34" font-weight="500" letter-spacing="2">250ml e / 气泡饮</text>
    </g>
    <ellipse cx="1024" cy="1631" rx="312" ry="84" fill="#656944" opacity="0.48"/>
    <path d="M716 1608c45 55 119 78 308 78s263-23 308-78v32c0 73-66 116-308 116s-308-43-308-116v-32Z" fill="#4f5735" opacity="0.5"/>
  </g>
</svg>
